<svg width="136" height="49" viewBox="0 0 136 49" fill="none" xmlns="http://www.w3.org/2000/svg">
<g clip-path="url(#clip0_1_24)">
<path d="M11.3814 19.4111V18.1214C10.9326 18.0595 10.4802 18.0275 10.0271 18.0258C4.49837 18.0188 0 22.5207 0 28.061C7.88342e-05 29.6753 0.389654 31.2657 1.13566 32.6973C1.88166 34.129 2.96206 35.3594 4.28515 36.2843C2.55162 34.4301 1.58827 31.9859 1.59051 29.4475C1.59051 23.9879 5.96325 19.5379 11.3814 19.4123V19.4111Z" fill="#25F4EE"/>
<path d="M11.6245 34.03C14.091 34.03 16.1079 32.0626 16.1967 29.6157L16.2036 7.75431H20.1948C20.1115 7.29722 20.069 6.83359 20.068 6.36896H14.6211L14.6142 28.2315C14.5699 29.4153 14.069 30.536 13.2167 31.3586C12.3644 32.1813 11.2267 32.6422 10.0421 32.6446C9.30017 32.6448 8.56956 32.4628 7.91449 32.1145C8.33528 32.7068 8.89176 33.1898 9.5374 33.523C10.183 33.8563 10.8979 34.0301 11.6245 34.03ZM27.6518 15.1744V13.9584C26.1845 13.961 24.7487 13.533 23.5222 12.7275C24.597 13.9693 26.0464 14.8281 27.6518 15.1744Z" fill="#25F4EE"/>
<path d="M23.5222 12.7275C22.3186 11.3506 21.6567 9.5831 21.6597 7.7543H20.2017C20.3875 8.76565 20.7777 9.72846 21.3484 10.5838C21.9192 11.4391 22.6585 12.169 23.5211 12.7287L23.5222 12.7275ZM10.034 23.4715C8.81962 23.4737 7.65564 23.9573 6.79727 24.8163C5.93889 25.6753 5.45617 26.8396 5.45496 28.054C5.45496 29.8151 6.45652 31.348 7.91448 32.1144C7.34871 31.3373 7.04441 30.4006 7.04546 29.4394C7.04668 28.225 7.5294 27.0607 8.38777 26.2016C9.24615 25.3426 10.4101 24.859 11.6245 24.8569C12.0959 24.8569 12.5523 24.9376 12.9788 25.0701V19.4999C12.53 19.4379 12.0776 19.4059 11.6245 19.4042C11.5438 19.4042 11.4701 19.4111 11.3894 19.4111V23.6847C10.9508 23.5464 10.4939 23.4746 10.034 23.4715Z" fill="#FE2C55"/>
<path d="M27.6518 15.1744V19.4111C24.8246 19.4111 22.2037 18.5052 20.0681 16.9723V28.061C20.0681 33.5955 15.5709 38.1042 10.034 38.1042C7.97605 38.1041 5.96829 37.4686 4.28516 36.2843C5.22219 37.2948 6.35767 38.101 7.62054 38.6525C8.88341 39.204 10.2465 39.489 11.6245 39.4896C17.1533 39.4896 21.6597 34.9877 21.6597 29.4463V18.3577C23.8688 19.9461 26.5215 20.7993 29.2423 20.7965V15.345C28.6891 15.345 28.1589 15.285 27.6518 15.1744Z" fill="#FE2C55"/>
<path d="M20.0692 28.0621V16.9723C22.2786 18.5608 24.9318 19.414 27.653 19.4111V15.1744C26.0471 14.8283 24.5973 13.9695 23.5222 12.7275C22.6605 12.1662 21.9213 11.4361 21.3492 10.5814C20.7772 9.72671 20.3841 8.76501 20.1937 7.7543H16.2048L16.1978 29.6157C16.1538 30.7997 15.6531 31.9206 14.8007 32.7436C13.9483 33.5665 12.8105 34.0275 11.6257 34.03C10.8991 34.0283 10.1832 33.8545 9.53666 33.5227C8.89017 33.1909 8.33151 32.7107 7.90645 32.1214C7.16625 31.732 6.54622 31.1482 6.11306 30.4327C5.67989 29.7173 5.44999 28.8973 5.44807 28.0609C5.4496 26.8468 5.93245 25.6827 6.79079 24.8239C7.64913 23.9652 8.81294 23.4817 10.0271 23.4796C10.4985 23.4796 10.9549 23.5603 11.3814 23.6928V19.4192C5.96326 19.5379 1.59052 23.9879 1.59052 29.4475C1.59052 32.0868 2.61397 34.4875 4.28516 36.2855C5.96816 37.4701 7.97593 38.1061 10.034 38.1065C15.5639 38.1065 20.0692 33.5966 20.0692 28.0633V28.0621ZM34.6316 15.1894H51.6593L50.0987 20.0669H45.6822V38.0973H40.1753V20.0658L34.6385 20.0727L34.6316 15.1894ZM79.5623 15.1894H96.9888L95.4271 20.0669H90.621V38.0973H85.106V20.0658L79.5692 20.0727L79.5623 15.1894ZM52.7058 22.4769H58.1608V38.0973H52.7346L52.7058 22.4769ZM60.3321 15.1306H65.7871V25.7997L71.1914 20.4864H77.6987L70.8595 27.1251L78.517 38.0973H72.5087L67.3995 30.4928L65.7802 32.0626V38.0973H60.3241V15.1306H60.3321ZM118.124 15.1306H123.58V25.7997L128.983 20.4864H135.492L128.653 27.1251L136.309 38.0973H130.309L125.2 30.4928L123.58 32.0626V38.0973H118.124V15.1306ZM55.4292 20.6927C56.1575 20.6921 56.8558 20.4024 57.3706 19.8872C57.8854 19.3719 58.1746 18.6734 58.1746 17.9451C58.1746 17.4015 58.0134 16.8702 57.7114 16.4183C57.4093 15.9664 56.9801 15.6143 56.4779 15.4064C55.9757 15.1985 55.4231 15.1442 54.89 15.2504C54.357 15.3566 53.8674 15.6185 53.4832 16.003C53.099 16.3875 52.8375 16.8773 52.7318 17.4105C52.626 17.9436 52.6808 18.4961 52.8891 18.9982C53.0974 19.5002 53.4499 19.9292 53.9021 20.2308C54.3542 20.5324 54.8857 20.6932 55.4292 20.6927Z" fill="black"/>
<path d="M96.288 28.7467C96.2879 26.3944 97.1747 24.1284 98.7713 22.4009C100.368 20.6733 102.557 19.6111 104.902 19.4261C104.63 19.4051 104.358 19.3951 104.085 19.3961C98.9238 19.3961 94.7424 23.581 94.7424 28.7467C94.7424 33.9124 98.9238 38.0973 104.085 38.0973C104.327 38.0973 104.659 38.0823 104.903 38.0673C100.088 37.6916 96.288 33.6611 96.288 28.7467Z" fill="#25F4EE"/>
<path d="M107.023 19.3973C106.773 19.3973 106.441 19.4111 106.198 19.4261C108.541 19.6125 110.729 20.6754 112.324 22.4028C113.919 24.1302 114.805 26.3954 114.805 28.7467C114.805 31.098 113.919 33.363 112.324 35.0904C110.729 36.8177 108.541 37.8807 106.198 38.0673C106.441 38.0904 106.773 38.0973 107.023 38.0973C112.184 38.0973 116.365 33.9124 116.365 28.7467C116.365 23.581 112.184 19.3973 107.023 19.3973Z" fill="#FE2C55"/>
<path d="M105.55 33.2935C104.953 33.2935 104.362 33.1759 103.811 32.9473C103.259 32.7187 102.759 32.3837 102.337 31.9614C101.915 31.5392 101.581 31.0379 101.353 30.4863C101.125 29.9347 101.008 29.3435 101.009 28.7467C101.009 27.5421 101.487 26.3867 102.339 25.5349C103.191 24.6831 104.346 24.2046 105.551 24.2046C106.756 24.2046 107.911 24.6831 108.763 25.5349C109.615 26.3867 110.093 27.5421 110.093 28.7467C110.093 31.2593 108.053 33.2935 105.55 33.2935ZM105.55 19.3961C100.39 19.3961 96.2073 23.581 96.2073 28.7467C96.2073 33.9124 100.39 38.0973 105.55 38.0973C110.711 38.0973 114.892 33.9124 114.892 28.7467C114.892 23.581 110.711 19.3961 105.55 19.3961Z" fill="black"/>
</g>
<defs>
<clipPath id="clip0_1_24">
<rect width="136" height="48.4068" fill="white"/>
</clipPath>
</defs>
</svg>
